<svg width="170" height="49" viewBox="0 0 170 49" fill="none" xmlns="http://www.w3.org/2000/svg">
<rect width="170" height="49" rx="24.5" fill="#FB9333"/>
<path d="M26.688 28.816H30.592V30H25.232V18.848H26.688V28.816ZM39.8183 25.28C39.8183 25.5573 39.8023 25.8507 39.7702 26.16H32.7622C32.8156 27.024 33.1089 27.7013 33.6423 28.192C34.1863 28.672 34.8423 28.912 35.6102 28.912C36.2396 28.912 36.7623 28.768 37.1783 28.48C37.6049 28.1813 37.9036 27.7867 38.0743 27.296H39.6423C39.4076 28.1387 38.9383 28.8267 38.2343 29.36C37.5303 29.8827 36.6556 30.144 35.6102 30.144C34.7783 30.144 34.0316 29.9573 33.3702 29.584C32.7196 29.2107 32.2076 28.6827 31.8342 28C31.4609 27.3067 31.2742 26.5067 31.2742 25.6C31.2742 24.6933 31.4556 23.8987 31.8182 23.216C32.1809 22.5333 32.6876 22.0107 33.3382 21.648C33.9996 21.2747 34.7569 21.088 35.6102 21.088C36.4423 21.088 37.1783 21.2693 37.8183 21.632C38.4583 21.9947 38.9489 22.496 39.2903 23.136C39.6423 23.7653 39.8183 24.48 39.8183 25.28ZM38.3142 24.976C38.3142 24.4213 38.1916 23.9467 37.9462 23.552C37.7009 23.1467 37.3649 22.8427 36.9383 22.64C36.5223 22.4267 36.0582 22.32 35.5462 22.32C34.8102 22.32 34.1809 22.5547 33.6582 23.024C33.1462 23.4933 32.8529 24.144 32.7782 24.976H38.3142ZM40.8761 25.584C40.8761 24.688 41.0575 23.904 41.4201 23.232C41.7828 22.5493 42.2788 22.0213 42.9081 21.648C43.5481 21.2747 44.2575 21.088 45.0361 21.088C45.8041 21.088 46.4708 21.2533 47.0361 21.584C47.6015 21.9147 48.0228 22.3307 48.3001 22.832V21.232H49.7721V30H48.3001V28.368C48.0121 28.88 47.5801 29.3067 47.0041 29.648C46.4388 29.9787 45.7775 30.144 45.0201 30.144C44.2415 30.144 43.5375 29.952 42.9081 29.568C42.2788 29.184 41.7828 28.6453 41.4201 27.952C41.0575 27.2587 40.8761 26.4693 40.8761 25.584ZM48.3001 25.6C48.3001 24.9387 48.1668 24.3627 47.9001 23.872C47.6335 23.3813 47.2708 23.008 46.8121 22.752C46.3641 22.4853 45.8681 22.352 45.3241 22.352C44.7801 22.352 44.2841 22.48 43.8361 22.736C43.3881 22.992 43.0308 23.3653 42.7641 23.856C42.4975 24.3467 42.3641 24.9227 42.3641 25.584C42.3641 26.256 42.4975 26.8427 42.7641 27.344C43.0308 27.8347 43.3881 28.2133 43.8361 28.48C44.2841 28.736 44.7801 28.864 45.3241 28.864C45.8681 28.864 46.3641 28.736 46.8121 28.48C47.2708 28.2133 47.6335 27.8347 47.9001 27.344C48.1668 26.8427 48.3001 26.2613 48.3001 25.6ZM53.3686 22.656C53.6246 22.1547 53.9873 21.7653 54.4566 21.488C54.9366 21.2107 55.518 21.072 56.2006 21.072V22.576H55.8166C54.1846 22.576 53.3686 23.4613 53.3686 25.232V30H51.9126V21.232H53.3686V22.656ZM61.8334 21.072C62.9 21.072 63.764 21.3973 64.4254 22.048C65.0867 22.688 65.4174 23.616 65.4174 24.832V30H63.9774V25.04C63.9774 24.1653 63.7587 23.4987 63.3214 23.04C62.884 22.5707 62.2867 22.336 61.5294 22.336C60.7614 22.336 60.148 22.576 59.6894 23.056C59.2414 23.536 59.0174 24.2347 59.0174 25.152V30H57.5614V21.232H59.0174V22.48C59.3054 22.032 59.6947 21.6853 60.1854 21.44C60.6867 21.1947 61.236 21.072 61.8334 21.072ZM81.9654 21.072C82.648 21.072 83.256 21.216 83.7894 21.504C84.3227 21.7813 84.744 22.2027 85.0534 22.768C85.3627 23.3333 85.5174 24.0213 85.5174 24.832V30H84.0774V25.04C84.0774 24.1653 83.8587 23.4987 83.4214 23.04C82.9947 22.5707 82.4134 22.336 81.6774 22.336C80.92 22.336 80.3174 22.5813 79.8694 23.072C79.4214 23.552 79.1974 24.2507 79.1974 25.168V30H77.7574V25.04C77.7574 24.1653 77.5387 23.4987 77.1014 23.04C76.6747 22.5707 76.0934 22.336 75.3574 22.336C74.6 22.336 73.9974 22.5813 73.5494 23.072C73.1014 23.552 72.8774 24.2507 72.8774 25.168V30H71.4214V21.232H72.8774V22.496C73.1654 22.0373 73.5494 21.6853 74.0294 21.44C74.52 21.1947 75.0587 21.072 75.6454 21.072C76.3814 21.072 77.032 21.2373 77.5974 21.568C78.1627 21.8987 78.584 22.384 78.8614 23.024C79.1067 22.4053 79.512 21.9253 80.0774 21.584C80.6427 21.2427 81.272 21.072 81.9654 21.072ZM91.4097 30.144C90.5884 30.144 89.8417 29.9573 89.1697 29.584C88.5084 29.2107 87.9857 28.6827 87.6017 28C87.2284 27.3067 87.0417 26.5067 87.0417 25.6C87.0417 24.704 87.2337 23.9147 87.6177 23.232C88.0124 22.5387 88.5457 22.0107 89.2177 21.648C89.8897 21.2747 90.6417 21.088 91.4737 21.088C92.3057 21.088 93.0577 21.2747 93.7297 21.648C94.4017 22.0107 94.9297 22.5333 95.3137 23.216C95.7084 23.8987 95.9057 24.6933 95.9057 25.6C95.9057 26.5067 95.7031 27.3067 95.2977 28C94.9031 28.6827 94.3644 29.2107 93.6817 29.584C92.9991 29.9573 92.2417 30.144 91.4097 30.144ZM91.4097 28.864C91.9324 28.864 92.4231 28.7413 92.8817 28.496C93.3404 28.2507 93.7084 27.8827 93.9857 27.392C94.2737 26.9013 94.4177 26.304 94.4177 25.6C94.4177 24.896 94.2791 24.2987 94.0017 23.808C93.7244 23.3173 93.3617 22.9547 92.9137 22.72C92.4657 22.4747 91.9804 22.352 91.4577 22.352C90.9244 22.352 90.4337 22.4747 89.9857 22.72C89.5484 22.9547 89.1964 23.3173 88.9297 23.808C88.6631 24.2987 88.5297 24.896 88.5297 25.6C88.5297 26.3147 88.6577 26.9173 88.9137 27.408C89.1804 27.8987 89.5324 28.2667 89.9697 28.512C90.4071 28.7467 90.8871 28.864 91.4097 28.864ZM98.9561 22.656C99.2121 22.1547 99.5748 21.7653 100.044 21.488C100.524 21.2107 101.105 21.072 101.788 21.072V22.576H101.404C99.7721 22.576 98.9561 23.4613 98.9561 25.232V30H97.5001V21.232H98.9561V22.656ZM111.149 25.28C111.149 25.5573 111.133 25.8507 111.101 26.16H104.093C104.146 27.024 104.44 27.7013 104.973 28.192C105.517 28.672 106.173 28.912 106.941 28.912C107.57 28.912 108.093 28.768 108.509 28.48C108.936 28.1813 109.234 27.7867 109.405 27.296H110.973C110.738 28.1387 110.269 28.8267 109.565 29.36C108.861 29.8827 107.986 30.144 106.941 30.144C106.109 30.144 105.362 29.9573 104.701 29.584C104.05 29.2107 103.538 28.6827 103.165 28C102.792 27.3067 102.605 26.5067 102.605 25.6C102.605 24.6933 102.786 23.8987 103.149 23.216C103.512 22.5333 104.018 22.0107 104.669 21.648C105.33 21.2747 106.088 21.088 106.941 21.088C107.773 21.088 108.509 21.2693 109.149 21.632C109.789 21.9947 110.28 22.496 110.621 23.136C110.973 23.7653 111.149 24.48 111.149 25.28ZM109.645 24.976C109.645 24.4213 109.522 23.9467 109.277 23.552C109.032 23.1467 108.696 22.8427 108.269 22.64C107.853 22.4267 107.389 22.32 106.877 22.32C106.141 22.32 105.512 22.5547 104.989 23.024C104.477 23.4933 104.184 24.144 104.109 24.976H109.645Z" fill="white"/>
<path d="M141.75 24.2256H126.75" stroke="white" stroke-width="1.5" stroke-linecap="round" stroke-linejoin="round"/>
<path d="M135.7 18.201L141.75 24.225L135.7 30.25" stroke="white" stroke-width="1.5" stroke-linecap="round" stroke-linejoin="round"/>
</svg>
